# xmcd CD database file
#
# Track frame offsets:
#	150
#	29502
#	54850
#	72837
#	100235
#	117540
#	147592
#	168290
#	196542
#	198942
#	231340
#	254702
#	278602
#	304397
#
# Disc length: 4408 seconds
#
# Revision: 0
# Processed by: cddbd v1.5PL3 Copyright (c) Steve Scherf et al.
# Submitted via: CDex 1.51
#
DISCID=cc11360e
DTITLE=Dugsoul - One Scenery in a Lifetime
DYEAR=2004
DGENRE=Jazz
TTITLE0=X Ray Milky Way
TTITLE1=Aurora (Like Live Love)
TTITLE2=Hope Fly (For Miles Davis
TTITLE3=Shadow Rise
TTITLE4=Hotaru-an
TTITLE5=CosmicPink (Daikanyama ver.)
TTITLE6=Rainy Day (Deep Night N.Y.)
TTITLE7=Mellow Love (Ebisu ver.)
TTITLE8=Heaven
TTITLE9=Connection (Akasaka ver.)
TTITLE10=Rolling Moon (This Feeling)
TTITLE11=Peace of Love (Mellow Groove Mix)
TTITLE12=Life with Me Feat. Dr. Ko (Funky Monky Mix)
TTITLE13=Get Down (Alubum Ver)
EXTD=YEAR: 2004
EXTT0=
EXTT1=
EXTT2=
EXTT3=
EXTT4=
EXTT5=
EXTT6=
EXTT7=
EXTT8=
EXTT9=
EXTT10=
EXTT11=
EXTT12=
EXTT13=
PLAYORDER=
